<svg xmlns="http://www.w3.org/2000/svg" width="1200" height="630" viewBox="0 0 1200 630" role="img" aria-labelledby="title desc">
  <title id="title">DigitalClick Systems social preview</title>
  <desc id="desc">A light professional preview card for websites, systems, automation and support.</desc>
  <defs>
    <linearGradient id="bg" x1="0" y1="0" x2="1" y2="1">
      <stop offset="0" stop-color="#f7fbff"/>
      <stop offset="0.54" stop-color="#ffffff"/>
      <stop offset="1" stop-color="#fff7f1"/>
    </linearGradient>
    <linearGradient id="orange" x1="0" y1="0" x2="1" y2="1">
      <stop offset="0" stop-color="#f3652d"/>
      <stop offset="1" stop-color="#ff9b45"/>
    </linearGradient>
    <linearGradient id="teal" x1="0" y1="0" x2="1" y2="1">
      <stop offset="0" stop-color="#0e7490"/>
      <stop offset="1" stop-color="#22a6b3"/>
    </linearGradient>
    <filter id="shadow" x="-20%" y="-20%" width="140%" height="140%">
      <feDropShadow dx="0" dy="18" stdDeviation="22" flood-color="#182230" flood-opacity="0.15"/>
    </filter>
    <pattern id="grid" width="42" height="42" patternUnits="userSpaceOnUse">
      <path d="M42 0H0V42" fill="none" stroke="#dce7f0" stroke-width="1" opacity="0.55"/>
    </pattern>
  </defs>

  <rect width="1200" height="630" fill="url(#bg)"/>
  <rect width="1200" height="630" fill="url(#grid)" opacity="0.45"/>
  <path d="M0 475 C170 430 260 555 425 515 C580 478 655 420 820 462 C965 500 1050 520 1200 442 V630 H0 Z" fill="#fff1e8" opacity="0.78"/>
  <path d="M0 526 C178 474 294 604 470 564 C655 522 724 467 910 515 C1030 546 1117 560 1200 522 V630 H0 Z" fill="#e9f8fb" opacity="0.72"/>

  <g transform="translate(78 72)">
    <g>
      <rect x="0" y="0" width="74" height="74" rx="18" fill="url(#orange)"/>
      <path d="M23 21h22c10 0 18 7 18 16s-8 16-18 16H23V21Z" fill="#fff"/>
      <path d="M18 19v36" stroke="#0e7490" stroke-width="6" stroke-linecap="round"/>
    </g>
    <text x="96" y="31" fill="#182230" font-family="Segoe UI, Arial, sans-serif" font-size="26" font-weight="800" letter-spacing="0">DigitalClick Systems</text>
    <text x="96" y="61" fill="#5b697a" font-family="Segoe UI, Arial, sans-serif" font-size="15" font-weight="800" letter-spacing="2.6">BUSINESS IT PARTNER</text>
  </g>

  <g transform="translate(78 190)">
    <text x="0" y="0" fill="#0e7490" font-family="Segoe UI, Arial, sans-serif" font-size="18" font-weight="900" letter-spacing="3">WEB SOLUTIONS</text>
    <text x="0" y="72" fill="#182230" font-family="Segoe UI, Arial, sans-serif" font-size="62" font-weight="900" letter-spacing="0">Websites, systems</text>
    <text x="0" y="140" fill="#182230" font-family="Segoe UI, Arial, sans-serif" font-size="62" font-weight="900" letter-spacing="0">&amp; automation.</text>
    <text x="0" y="190" fill="#5b697a" font-family="Segoe UI, Arial, sans-serif" font-size="24" font-weight="500">Professional digital delivery for growing businesses.</text>
  </g>

  <g transform="translate(78 470)">
    <rect x="0" y="0" width="168" height="48" rx="24" fill="#f3652d"/>
    <text x="30" y="31" fill="#ffffff" font-family="Segoe UI, Arial, sans-serif" font-size="15" font-weight="900">Start a project</text>
    <rect x="184" y="0" width="194" height="48" rx="24" fill="#ffffff" stroke="#dde7f0"/>
    <circle cx="212" cy="24" r="6" fill="#16803c"/>
    <text x="232" y="31" fill="#182230" font-family="Segoe UI, Arial, sans-serif" font-size="15" font-weight="900">Fast local assets</text>
  </g>

  <g transform="translate(648 88)" filter="url(#shadow)">
    <rect x="0" y="0" width="462" height="324" rx="18" fill="#ffffff" stroke="#dde7f0"/>
    <rect x="0" y="0" width="462" height="48" rx="18" fill="#f4f8fb"/>
    <path d="M0 38H462" stroke="#dde7f0"/>
    <circle cx="28" cy="24" r="6" fill="#f3652d"/>
    <circle cx="48" cy="24" r="6" fill="#d89215"/>
    <circle cx="68" cy="24" r="6" fill="#16803c"/>
    <rect x="96" y="16" width="234" height="16" rx="8" fill="#e5edf4"/>

    <g transform="translate(32 84)">
      <rect x="0" y="0" width="172" height="18" rx="9" fill="#182230"/>
      <rect x="0" y="34" width="250" height="12" rx="6" fill="#dce7f0"/>
      <rect x="0" y="58" width="206" height="12" rx="6" fill="#dce7f0"/>
      <rect x="0" y="94" width="120" height="38" rx="19" fill="url(#orange)"/>
    </g>

    <g transform="translate(274 80)">
      <rect x="0" y="0" width="70" height="70" rx="12" fill="#fff1e8"/>
      <rect x="90" y="0" width="70" height="70" rx="12" fill="#e9f8fb"/>
      <rect x="0" y="90" width="70" height="70" rx="12" fill="#eef9ef"/>
      <rect x="90" y="90" width="70" height="70" rx="12" fill="#f5f8fb"/>
      <circle cx="35" cy="35" r="13" fill="#f3652d"/>
      <circle cx="125" cy="35" r="13" fill="#0e7490"/>
      <circle cx="35" cy="125" r="13" fill="#16803c"/>
      <circle cx="125" cy="125" r="13" fill="#d89215"/>
    </g>
  </g>

  <g transform="translate(596 452)" filter="url(#shadow)">
    <rect x="0" y="0" width="262" height="96" rx="16" fill="#ffffff" stroke="#dde7f0"/>
    <text x="24" y="36" fill="#f3652d" font-family="Segoe UI, Arial, sans-serif" font-size="30" font-weight="900">12+</text>
    <text x="24" y="68" fill="#5b697a" font-family="Segoe UI, Arial, sans-serif" font-size="15" font-weight="800">website launches</text>
    <rect x="150" y="24" width="84" height="12" rx="6" fill="#dce7f0"/>
    <rect x="150" y="48" width="58" height="12" rx="6" fill="#dce7f0"/>
  </g>

  <g transform="translate(886 452)" filter="url(#shadow)">
    <rect x="0" y="0" width="224" height="96" rx="16" fill="#ffffff" stroke="#dde7f0"/>
    <text x="24" y="36" fill="#0e7490" font-family="Segoe UI, Arial, sans-serif" font-size="30" font-weight="900">8+</text>
    <text x="24" y="68" fill="#5b697a" font-family="Segoe UI, Arial, sans-serif" font-size="15" font-weight="800">business systems</text>
    <path d="M150 66V33M173 66V44M196 66V24" stroke="#16803c" stroke-width="10" stroke-linecap="round"/>
  </g>
</svg>
