<?xml version="1.0" encoding="UTF-8"?>
<svg width="1200" height="630" viewBox="0 0 1200 630" fill="none" xmlns="http://www.w3.org/2000/svg" role="img" aria-labelledby="title desc">
  <title id="title">DigitalClick Systems — Digital tools that make business easier to run.</title>
  <desc id="desc">Social sharing preview for DigitalClick Systems, featuring websites, business systems, automation and technical support.</desc>

  <defs>
    <linearGradient id="background" x1="0" y1="0" x2="1200" y2="630" gradientUnits="userSpaceOnUse">
      <stop stop-color="#FFFFFF"/>
      <stop offset="0.56" stop-color="#FBFDFF"/>
      <stop offset="1" stop-color="#EEF4FF"/>
    </linearGradient>
    <linearGradient id="logo" x1="64" y1="52" x2="122" y2="110" gradientUnits="userSpaceOnUse">
      <stop stop-color="#1749D7"/>
      <stop offset="1" stop-color="#10379F"/>
    </linearGradient>
    <linearGradient id="heroCard" x1="760" y1="108" x2="1119" y2="518" gradientUnits="userSpaceOnUse">
      <stop stop-color="#FFFFFF"/>
      <stop offset="1" stop-color="#F4F8FF"/>
    </linearGradient>
    <linearGradient id="darkCard" x1="786" y1="392" x2="1084" y2="473" gradientUnits="userSpaceOnUse">
      <stop stop-color="#09172F"/>
      <stop offset="1" stop-color="#142D62"/>
    </linearGradient>
    <linearGradient id="blueGlow" x1="0" y1="0" x2="1" y2="1">
      <stop stop-color="#1749D7" stop-opacity="0.16"/>
      <stop offset="1" stop-color="#1749D7" stop-opacity="0"/>
    </linearGradient>
    <filter id="boardShadow" x="714" y="67" width="461" height="510" filterUnits="userSpaceOnUse" color-interpolation-filters="sRGB">
      <feFlood flood-opacity="0" result="BackgroundImageFix"/>
      <feColorMatrix in="SourceAlpha" type="matrix" values="0 0 0 0 0.035 0 0 0 0 0.09 0 0 0 0 0.184 0 0 0 0.13 0"/>
      <feOffset dy="22"/>
      <feGaussianBlur stdDeviation="24"/>
      <feComposite in2="SourceAlpha" operator="out"/>
      <feBlend in2="BackgroundImageFix" result="effect1_dropShadow"/>
      <feBlend in="SourceGraphic" in2="effect1_dropShadow" result="shape"/>
    </filter>
    <filter id="pillShadow" x="777" y="385" width="328" height="109" filterUnits="userSpaceOnUse" color-interpolation-filters="sRGB">
      <feFlood flood-opacity="0" result="BackgroundImageFix"/>
      <feColorMatrix in="SourceAlpha" type="matrix" values="0 0 0 0 0.035 0 0 0 0 0.09 0 0 0 0 0.184 0 0 0 0.17 0"/>
      <feOffset dy="12"/>
      <feGaussianBlur stdDeviation="12"/>
      <feComposite in2="SourceAlpha" operator="out"/>
      <feBlend in2="BackgroundImageFix" result="effect1_dropShadow"/>
      <feBlend in="SourceGraphic" in2="effect1_dropShadow" result="shape"/>
    </filter>
    <clipPath id="boardClip">
      <rect x="753" y="90" width="377" height="438" rx="30"/>
    </clipPath>
  </defs>

  <!-- Background -->
  <rect width="1200" height="630" fill="url(#background)"/>
  <path d="M0 0H1200V8H0V0Z" fill="#1749D7"/>
  <circle cx="1110" cy="38" r="270" fill="url(#blueGlow)"/>
  <circle cx="1165" cy="590" r="220" fill="#DDF8F5" opacity="0.42"/>
  <path d="M44 574H1149" stroke="#DFE8F7"/>

  <!-- Brand -->
  <rect x="62" y="50" width="62" height="62" rx="18" fill="url(#logo)"/>
  <path d="M78 66H92.4C103.2 66 109 71.8 109 81C109 90.2 103.2 96 92.4 96H78V66ZM87.6 73.8V88.2H92.7C97.7 88.2 100.4 86.1 100.4 81C100.4 75.9 97.7 73.8 92.7 73.8H87.6Z" fill="#FFFFFF"/>
  <path d="M78 66H83.5V96H78V66Z" fill="#76D7D0"/>
  <text x="140" y="78" fill="#09172F" font-family="Manrope, Arial, sans-serif" font-size="25" font-weight="800" letter-spacing="-0.8">DigitalClick Systems</text>
  <text x="140" y="100" fill="#5D6B82" font-family="Inter, Arial, sans-serif" font-size="12" font-weight="600" letter-spacing="2.1">BUSINESS IT PARTNER</text>

  <!-- Main copy -->
  <text x="62" y="173" fill="#1749D7" font-family="Inter, Arial, sans-serif" font-size="14" font-weight="700" letter-spacing="2.4">WEBSITES  ·  SYSTEMS  ·  AUTOMATION  ·  SUPPORT</text>

  <text x="62" y="236" fill="#09172F" font-family="Manrope, Arial, sans-serif" font-size="52" font-weight="800" letter-spacing="-2">
    <tspan x="62" dy="0">Digital tools that make</tspan>
    <tspan x="62" dy="59">business </tspan><tspan fill="#1749D7">easier to run.</tspan>
  </text>

  <text x="62" y="391" fill="#5D6B82" font-family="Inter, Arial, sans-serif" font-size="18" font-weight="400">
    <tspan x="62" dy="0">Polished websites, practical internal systems and</tspan>
    <tspan x="62" dy="30">reliable technical support for growing businesses.</tspan>
  </text>

  <!-- Service chips -->
  <g>
    <rect x="62" y="474" width="147" height="43" rx="21.5" fill="#EDF4FF" stroke="#D3E2FF"/>
    <circle cx="84" cy="495.5" r="6" fill="#1749D7"/>
    <text x="99" y="501" fill="#324760" font-family="Inter, Arial, sans-serif" font-size="14" font-weight="600">Websites</text>

    <rect x="220" y="474" width="145" height="43" rx="21.5" fill="#EAF9F7" stroke="#D0EEEA"/>
    <circle cx="242" cy="495.5" r="6" fill="#12A6A1"/>
    <text x="257" y="501" fill="#324760" font-family="Inter, Arial, sans-serif" font-size="14" font-weight="600">Systems</text>

    <rect x="376" y="474" width="157" height="43" rx="21.5" fill="#F4F8FF" stroke="#DFE8F7"/>
    <circle cx="398" cy="495.5" r="6" fill="#087E67"/>
    <text x="413" y="501" fill="#324760" font-family="Inter, Arial, sans-serif" font-size="14" font-weight="600">Automation</text>
  </g>

  <!-- Dashboard visual -->
  <g filter="url(#boardShadow)">
    <rect x="753" y="90" width="377" height="438" rx="30" fill="url(#heroCard)" stroke="#DFE8F7"/>
  </g>
  <g clip-path="url(#boardClip)">
    <rect x="753" y="90" width="377" height="80" fill="#FFFFFF"/>
    <text x="780" y="126" fill="#09172F" font-family="Manrope, Arial, sans-serif" font-size="16" font-weight="800" letter-spacing="-0.3">Business overview</text>
    <text x="780" y="148" fill="#72839D" font-family="Inter, Arial, sans-serif" font-size="12">Website and operations snapshot</text>
    <rect x="1036" y="114" width="68" height="30" rx="15" fill="#E7FAF2"/>
    <circle cx="1051" cy="129" r="4" fill="#12A67C"/>
    <text x="1062" y="133" fill="#087E67" font-family="Inter, Arial, sans-serif" font-size="11" font-weight="700">Active</text>

    <rect x="771" y="174" width="341" height="335" rx="23" fill="#F5F8FF"/>
    <rect x="788" y="192" width="145" height="90" rx="16" fill="#FFFFFF"/>
    <text x="805" y="217" fill="#6C7D97" font-family="Inter, Arial, sans-serif" font-size="11">Website inquiries</text>
    <text x="805" y="250" fill="#09172F" font-family="Manrope, Arial, sans-serif" font-size="29" font-weight="800" letter-spacing="-1">24</text>
    <text x="805" y="268" fill="#8392A8" font-family="Inter, Arial, sans-serif" font-size="10">This month</text>

    <rect x="948" y="192" width="145" height="90" rx="16" fill="#FFFFFF"/>
    <text x="965" y="217" fill="#6C7D97" font-family="Inter, Arial, sans-serif" font-size="11">Follow-ups</text>
    <text x="965" y="250" fill="#09172F" font-family="Manrope, Arial, sans-serif" font-size="29" font-weight="800" letter-spacing="-1">08</text>
    <text x="965" y="268" fill="#8392A8" font-family="Inter, Arial, sans-serif" font-size="10">To action</text>

    <rect x="788" y="296" width="305" height="86" rx="16" fill="#FFFFFF"/>
    <text x="805" y="321" fill="#09172F" font-family="Inter, Arial, sans-serif" font-size="12" font-weight="700">Inquiry pipeline</text>
    <text x="1045" y="321" fill="#1749D7" font-family="Inter, Arial, sans-serif" font-size="10" font-weight="700">Live</text>

    <text x="805" y="347" fill="#6C7D97" font-family="Inter, Arial, sans-serif" font-size="10">New</text>
    <rect x="850" y="339" width="180" height="7" rx="3.5" fill="#EAF0FA"/>
    <rect x="850" y="339" width="147" height="7" rx="3.5" fill="#1749D7"/>
    <text x="1054" y="347" fill="#52637C" font-family="Inter, Arial, sans-serif" font-size="10">18</text>

    <text x="805" y="367" fill="#6C7D97" font-family="Inter, Arial, sans-serif" font-size="10">Quoted</text>
    <rect x="850" y="359" width="180" height="7" rx="3.5" fill="#EAF0FA"/>
    <rect x="850" y="359" width="95" height="7" rx="3.5" fill="#12A6A1"/>
    <text x="1054" y="367" fill="#52637C" font-family="Inter, Arial, sans-serif" font-size="10">11</text>
  </g>

  <!-- Hero floating claim card -->
  <g filter="url(#pillShadow)">
    <rect x="785" y="397" width="300" height="73" rx="17" fill="url(#darkCard)"/>
  </g>
  <rect x="805" y="417" width="34" height="34" rx="11" fill="#193665"/>
  <path d="M824 423L814 437H822L819 446L830 432H822L824 423Z" fill="#76D7D0"/>
  <text x="853" y="428" fill="#EEF4FF" font-family="Inter, Arial, sans-serif" font-size="13" font-weight="700">Cleaner workflows.</text>
  <text x="853" y="449" fill="#BDD0E9" font-family="Inter, Arial, sans-serif" font-size="13" font-weight="500">Faster action.</text>

  <!-- Footer -->
  <text x="62" y="596" fill="#50627C" font-family="Inter, Arial, sans-serif" font-size="14" font-weight="600">DigitalClick Systems</text>
  <text x="232" y="596" fill="#91A0B6" font-family="Inter, Arial, sans-serif" font-size="14">•</text>
  <text x="250" y="596" fill="#50627C" font-family="Inter, Arial, sans-serif" font-size="14">Website Development</text>
  <text x="424" y="596" fill="#91A0B6" font-family="Inter, Arial, sans-serif" font-size="14">•</text>
  <text x="442" y="596" fill="#50627C" font-family="Inter, Arial, sans-serif" font-size="14">Business Systems</text>
</svg>
